<svg width="70" height="63" viewBox="0 0 70 63" fill="none" xmlns="http://www.w3.org/2000/svg">
<path d="M68.3622 24.3728C67.2936 20.8596 65.4984 17.6034 63.2329 14.7328C61.9934 13.1904 60.7111 11.7337 59.3005 10.4483C61.4377 8.99161 65.1564 10.1913 67.5073 9.76281C68.3195 9.63428 67.9775 8.39179 67.1654 8.52032C64.6008 8.99161 61.0958 7.9205 58.7876 9.24868C60.1554 6.97792 62.5918 5.5212 65.3274 5.47836C66.1395 5.47836 66.1395 4.19302 65.3274 4.19302C63.3184 4.23587 61.4377 4.92138 59.9417 6.07818C60.2836 4.79285 60.4546 3.37898 60.5401 1.87942C60.5828 1.06537 59.3005 1.06537 59.2578 1.87942C59.0868 4.40725 58.7876 6.80654 57.2915 8.6917L57.2488 8.64886C58.4029 5.60689 57.9754 1.57951 55.1544 0.0799475C54.4277 -0.305653 53.7865 0.808305 54.5132 1.19391C56.6504 2.30786 56.9496 5.43552 56.1802 7.87765C55.7955 7.62059 55.4108 7.36352 54.9834 7.10645C47.5887 2.90769 38.6979 2.00795 30.4484 3.16475C28.4394 3.25044 26.4304 3.55036 24.4642 3.93596C21.9423 4.40725 19.4632 5.04991 17.1123 6.12103C14.8041 7.1493 12.8379 8.77739 10.9999 10.4912C9.24738 12.1621 7.58037 13.9187 6.08433 15.8467C3.30597 19.4885 1.33975 23.6873 0.484876 28.186C0.185669 29.9854 0.0574371 31.7849 0.100181 33.5844C-0.113539 36.1979 0.0146932 38.8114 0.484876 41.4249C1.25427 45.5809 3.04951 49.4797 5.74238 52.6931C8.69171 56.2063 12.7096 58.6913 16.9413 60.3194C22.7972 62.5901 29.337 63.1471 35.7059 62.633C35.9623 62.6758 36.2188 62.6758 36.4753 62.7187C41.3481 63.19 46.3064 62.7187 50.88 60.9192C55.0689 59.2483 58.8303 56.5062 61.7797 53.0787C63.2329 51.3649 64.4298 49.5226 65.3701 47.5089C65.7976 46.7805 66.225 46.0521 66.6097 45.3238C69.901 38.8543 70.4139 31.2708 68.3622 24.3728ZM54.4704 7.87765C54.8979 8.13472 55.3681 8.43463 55.7955 8.6917C55.6245 9.03446 55.4536 9.33437 55.2398 9.63428C51.7776 7.40636 47.8879 5.90681 43.8272 5.09276C43.4425 4.96423 43.0578 4.83569 42.6731 4.75C40.8779 4.23587 39.0399 3.80742 37.2019 3.55036C43.2288 3.5932 49.2984 4.92138 54.4704 7.87765ZM13.6927 9.29152C15.8299 7.57774 18.3091 6.42094 20.9592 5.64974H21.002C19.9334 6.07818 18.9075 6.54947 17.8817 7.06361C15.8727 8.09188 14.0347 9.37721 12.1967 10.6625C12.0257 10.7911 11.812 10.9196 11.641 11.091C12.3249 10.4483 13.0088 9.8485 13.6927 9.29152ZM5.2722 19.5742C7.66585 14.9042 11.8975 11.7337 16.2574 9.03446C19.8479 6.7637 23.9513 5.34983 28.0974 4.49294C28.8241 4.3644 29.5507 4.19302 30.2774 4.10734C31.6025 4.06449 32.9275 4.06449 34.2526 4.15018C34.8082 4.19302 35.3639 4.23587 35.9623 4.32156C34.5945 4.32156 33.2267 4.3644 31.9017 4.45009C27.841 4.79285 23.8231 5.73543 20.1043 7.36352C15.7872 9.24868 11.2991 11.9479 8.34976 15.7182C6.81098 17.7319 5.65689 20.0027 4.58829 22.3163C3.64793 24.33 2.83579 26.3865 2.32287 28.5716C1.63896 31.3565 1.33975 34.2271 1.51073 37.0976C1.29701 35.9837 1.12604 34.8269 1.08329 33.6701C1.46799 28.743 3.00677 23.9015 5.2722 19.5742ZM24.9771 61.4333C15.5735 60.1052 6.51177 55.178 2.7503 46.0521C1.80994 43.8242 1.25427 41.4678 1.04055 39.1113C1.25427 39.8825 1.55347 40.6537 1.85268 41.3821C2.02366 41.7248 2.15189 42.1104 2.32287 42.4532C4.75927 50.9793 12.1112 56.6776 20.4035 59.2911C22.2843 59.8909 24.2505 60.3194 26.2167 60.5764C27.7982 61.0906 29.4653 61.519 31.0895 61.8618C29.0378 61.8618 26.9861 61.7332 24.9771 61.4333ZM5.5714 47.5517C6.85372 49.1798 8.34976 50.6794 9.93128 52.0504C12.9234 54.5782 16.2574 56.5491 19.8051 58.1343C19.0785 57.8772 18.3518 57.6202 17.6679 57.3631C13.1798 55.5208 9.03366 52.5645 6.21256 48.58C5.99884 48.2372 5.78512 47.8945 5.5714 47.5517ZM53.5301 58.6913C49.6404 60.8764 45.3232 61.8618 40.9206 61.9903C42.3312 61.7761 43.699 61.4762 45.024 61.1763C49.5976 60.1052 54.0858 58.3057 57.9327 55.5208C58.2747 55.2637 58.6166 55.0067 58.9158 54.7496C57.2915 56.292 55.4963 57.6202 53.5301 58.6913ZM64.6435 46.909C61.9934 51.1935 58.1464 54.7496 53.6156 57.106C49.2557 59.3768 44.4256 60.5764 39.6383 61.262C38.2278 61.4762 36.8172 61.6047 35.4067 61.7333C34.1243 61.5619 32.7993 61.3477 31.517 61.0906C32.5001 61.1334 33.4832 61.1763 34.4663 61.1763C39.2964 61.1763 44.2119 60.5764 48.8282 59.0769C56.9923 56.4205 63.5322 50.2509 66.396 42.1961C65.9686 43.7814 65.3701 45.4095 64.6435 46.909ZM66.225 39.6683C65.0709 44.2955 62.549 48.5371 59.1723 51.879C55.71 55.3066 51.3074 57.4916 46.6483 58.777C41.861 60.1052 36.8172 60.4051 31.8589 60.2337C30.0209 60.148 28.1829 60.0195 26.3877 59.7196C25.5328 59.4625 24.6779 59.1626 23.8658 58.8627C19.3349 57.1917 15.0178 55.0067 11.2136 52.0075C7.87957 49.3512 5.10122 46.095 3.22049 42.2818C2.62207 40.1824 2.32287 38.0831 2.28012 35.9837C2.15189 31.3565 3.39146 26.9006 5.31494 22.7447C6.42628 20.3026 7.62311 17.9461 9.29012 15.8467C10.9571 13.7902 13.0943 12.205 15.3598 10.8339C19.1212 8.56317 23.0537 6.84939 27.3708 5.94965C31.6452 5.04991 36.0906 4.96423 40.4504 5.47836C41.519 5.60689 42.5876 5.77827 43.699 5.99249C44.6393 6.29241 45.6225 6.63516 46.5201 7.02076C52.547 9.37721 58.2747 13.2332 62.1216 18.5459C64.6008 22.0164 66.1823 26.258 66.8662 30.5424C67.1654 33.5415 66.9517 36.6692 66.225 39.6683ZM67.8065 39.754C67.9775 38.7686 68.1058 37.7403 68.1485 36.712C68.2767 34.7412 68.1058 32.7703 67.8065 30.8423C67.5928 28.443 67.0372 26.0437 66.225 23.8158C64.558 19.36 61.7369 15.0755 58.1464 11.8622C58.1892 11.8194 58.2319 11.7337 58.2747 11.6908C58.4029 11.4338 58.5311 11.2195 58.7021 11.0482C61.3095 13.4046 63.4894 16.1895 65.1992 19.2315C67.7638 23.7301 68.9179 28.9572 68.7042 34.0985C68.6187 35.9837 68.3195 37.9117 67.8065 39.754Z" fill="#FF0000"/>
<path d="M28.7388 21.3311C27.2428 22.8735 25.7467 24.2445 23.7378 25.0586C21.857 25.8298 19.7626 26.044 17.7536 26.2582C16.9415 26.3439 16.9415 27.6293 17.7536 27.5436C19.4206 27.3722 21.0877 27.158 22.7119 26.7295C22.1563 28.529 23.1394 30.457 25.1056 30.8426C27.4565 31.3139 28.0549 28.2719 27.2428 26.6438C26.9863 26.1297 26.4734 25.7013 25.9177 25.4013C27.2855 24.5445 28.4824 23.3877 29.6364 22.2308C30.2349 21.631 29.2945 20.7313 28.7388 21.3311Z" fill="#FF0000"/>
<path d="M51.0503 22.4876C47.93 22.359 43.9975 22.4019 41.8176 19.8312C41.2619 19.1885 40.3643 20.1311 40.92 20.7309C41.9031 21.8449 43.1426 22.5304 44.5105 22.9589C44.3822 23.1302 44.254 23.3445 44.1685 23.473C43.7411 24.2013 43.6983 25.1011 43.8693 25.9151C44.2112 27.6718 46.263 28.4858 47.8017 27.886C49.3833 27.2861 49.9389 25.3581 49.255 23.9014C49.2123 23.8157 49.1695 23.7301 49.1268 23.6444C49.768 23.6872 50.4519 23.6872 51.0503 23.7301C51.9052 23.8157 51.8624 22.5304 51.0503 22.4876Z" fill="#FF0000"/>
<path d="M51.6068 36.6694C51.5213 36.8836 49.2987 36.4552 48.8285 37.3549C48.5293 37.9547 48.401 38.5117 48.2728 39.1544C47.8881 40.9539 45.6654 39.9684 44.5541 39.7542C43.3145 39.54 42.1177 40.2683 41.4765 41.2538C40.8354 42.1535 40.4079 43.1818 39.724 44.0815C38.4844 45.6668 36.9457 44.2957 35.8771 43.396C33.056 40.9967 31.389 43.6531 28.7388 44.6385C26.8581 45.324 25.1911 40.9967 23.7805 40.097C22.7547 39.4543 21.5151 39.7542 20.6602 40.5254C20.0618 41.0824 20.9594 41.9821 21.5579 41.4251C23.5668 39.5828 25.1483 44.5528 26.5589 45.4097C27.7985 46.138 28.8671 46.0952 30.1066 45.4525C30.876 45.0669 31.5172 44.4671 32.2438 44.0387C33.6544 43.1818 34.723 44.1244 35.7488 44.9812C36.7747 45.881 37.6723 46.3094 38.9974 46.0952C40.4507 45.881 41.3483 43.9958 41.9467 42.8819C42.8443 41.2109 44.2549 40.911 45.9646 41.4251C46.6913 41.6394 47.3752 41.5965 48.0591 41.4251C49.2559 41.1252 49.5124 39.54 49.7261 38.5546C49.8971 37.6977 51.5213 38.2546 52.077 37.9547C52.5899 37.6548 52.6754 37.5263 52.8891 36.9693C53.1029 36.1981 51.8633 35.8554 51.6068 36.6694Z" fill="#FF0000"/>
<path d="M52.4183 30.1995C51.7771 30.2423 51.2215 30.328 50.6231 30.4994C49.2552 30.6708 48.0584 31.2706 47.0753 32.3417C46.7334 32.7273 46.9471 33.4985 47.5455 33.4556C49.5545 33.3271 51.3497 32.5988 52.8885 31.3134C53.2732 30.9278 52.9312 30.1566 52.4183 30.1995Z" fill="#FF0000"/>
<path d="M24.2505 33.4987C23.7376 32.5562 22.4125 32.7275 21.5149 32.7704C21.002 32.8132 20.4036 32.8132 19.8907 32.9418C19.1213 33.0275 18.4374 33.4131 17.9672 34.0986C17.668 34.527 18.0954 35.0411 18.5228 35.084C19.2495 35.1697 25.3619 35.4696 24.2505 33.4987Z" fill="#FF0000"/>
</svg>
