<svg width="69" height="62" viewBox="0 0 69 62" fill="none" xmlns="http://www.w3.org/2000/svg">
<path d="M67.9477 4.41738C65.6237 4.3344 63.4658 4.41738 61.5569 5.91088C61.1004 6.24277 60.6854 6.65763 60.2704 7.07249C60.8929 4.79075 60.6854 2.26009 59.6064 0.310242C59.2329 -0.395024 58.154 0.227269 58.5275 0.932535C60.1044 3.83657 59.3574 8.23411 56.7845 10.5159C57.7805 8.35857 57.5315 5.82791 55.1246 4.58332C54.4191 4.20995 53.7966 5.28859 54.5021 5.66196C56.2035 6.53317 56.411 8.23411 55.83 9.72761C55.0416 9.10532 54.2116 8.52451 53.2986 8.02668C46.1608 3.96103 37.5706 3.08982 29.5613 4.20995C27.6109 4.29292 25.6605 4.58332 23.7515 4.9567C21.3031 5.37156 18.8962 5.99385 16.6138 7.03101C14.3728 8.02668 12.4639 9.60315 10.6794 11.2626C8.97799 12.8806 7.35954 14.5815 5.90708 16.4484C3.20967 19.9747 1.30073 24.0404 0.470751 28.3964C0.138761 30.0973 0.0142652 31.8398 0.0972626 33.5822C-0.110231 36.1543 0.0142652 38.685 0.470751 41.2157C1.21773 45.2398 2.96067 49.0151 5.57509 52.1265C8.4385 55.5284 12.3394 57.9346 16.4478 59.5111C22.1331 61.7098 28.4824 62.2492 34.6657 61.7513C34.9147 61.7928 35.1637 61.7928 35.4127 61.8343C40.1435 62.2906 44.9574 61.8343 49.3977 60.0919C53.4646 58.4739 57.1165 55.8188 59.9799 52.4999C61.3909 50.8405 62.5528 49.0565 63.4658 47.1067C63.8808 46.4014 64.2958 45.6962 64.6693 44.9909C67.8647 38.768 68.3626 31.4249 66.3707 24.7456C65.3332 21.3438 63.5903 18.1908 61.3909 15.4112C60.5194 14.2911 59.6064 13.2539 58.6105 12.2583C58.9839 12.0923 59.3989 11.9679 59.8139 11.8434C61.7229 11.2626 63.1338 11.5115 64.8768 12.4242C65.5822 12.7976 66.2047 11.719 65.4992 11.3456C63.8808 10.5159 62.3868 9.97653 60.5609 10.3499C60.0214 10.4329 59.4404 10.5988 58.9009 10.7648C59.7724 9.68613 60.6854 8.64897 61.6399 7.61182C63.3828 5.74494 65.5407 5.62048 67.9477 5.70345C68.7361 5.70345 68.7361 4.45886 67.9477 4.41738ZM52.8836 8.73194C53.7966 9.27126 54.6266 9.85207 55.4566 10.4744C55.2906 10.7648 55.1246 11.0137 54.8756 11.2626L54.8341 11.3041C54.7096 11.2211 54.5851 11.0967 54.4606 11.0137C50.8917 8.52451 46.7833 6.90655 42.5089 6.03534C42.1355 5.91088 41.762 5.78642 41.3885 5.70345C39.6455 5.20562 37.9026 4.83224 36.1181 4.54184C41.9695 4.58332 47.8623 5.82791 52.8836 8.73194ZM13.2939 10.101C15.3688 8.44154 17.7757 7.32141 20.3486 6.57466H20.3901C19.3527 6.98952 18.3567 7.44587 17.3607 7.94371C15.4103 8.93937 13.6258 10.184 11.8414 11.4285C11.6754 11.553 11.4679 11.6775 11.3019 11.8434C11.9659 11.2211 12.6299 10.6403 13.2939 10.101ZM5.11861 20.0577C7.44254 15.5357 11.5509 12.4657 15.7838 9.81059C19.2697 7.61182 23.2535 6.24277 27.2789 5.41305C27.9844 5.28859 28.6899 5.12264 29.3954 5.03967C30.6818 4.99818 31.9683 4.99818 33.2547 5.08116C33.7942 5.12264 34.3337 5.16413 34.9147 5.2471C33.5867 5.2471 32.2588 5.28859 30.9723 5.37156C27.0299 5.70345 23.129 6.61615 19.5187 8.19262C15.3273 10.018 10.9699 12.6316 8.10651 16.2824C6.61256 18.2323 5.4921 20.4311 4.45463 22.6713C3.54166 24.6212 2.75318 26.6125 2.2552 28.7283C1.59122 31.4249 1.30073 34.2045 1.46672 36.9841C1.25923 35.9054 1.09323 34.7853 1.05173 33.6652C1.42522 28.9357 2.91918 24.2478 5.11861 20.0577ZM24.2495 60.5897C15.1198 59.3036 6.32207 54.5327 2.67018 45.6962C1.79871 43.5389 1.25923 41.2986 1.01023 38.9754C1.21773 39.7221 1.50822 40.4689 1.79871 41.1742C1.9647 41.5061 2.0892 41.8794 2.2552 42.2113C4.62062 50.4671 11.7584 55.9847 19.8092 58.5154C21.6351 59.0962 23.544 59.5111 25.453 59.76C26.9884 60.2578 28.6069 60.6727 30.1838 61.0046C28.1919 61.0046 26.2 60.8801 24.2495 60.5897ZM5.4091 47.1482C6.65406 48.7247 8.10651 50.1767 9.64197 51.5042C12.5469 53.9519 15.7838 55.8603 19.2282 57.3953C18.5227 57.1464 17.8172 56.8974 17.1532 56.6485C12.7959 54.8646 8.77049 52.0021 6.03158 48.1438C5.82409 47.812 5.61659 47.4801 5.4091 47.1482ZM51.9707 57.9346C48.1943 60.0504 44.0029 61.0046 39.7285 61.129C41.098 60.9216 42.426 60.6312 43.7124 60.3408C48.1528 59.3036 52.5101 57.5612 56.245 54.8646C56.577 54.6157 56.909 54.3668 57.1995 54.1179C55.6225 55.6114 53.8796 56.8559 51.9707 57.9346ZM62.7603 46.5259C60.1874 50.6745 56.4525 54.1179 52.0537 56.3996C47.8208 58.5984 43.1314 59.76 38.4836 60.4238C37.1141 60.6312 35.7447 60.7557 34.3752 60.8801C33.1302 60.7142 31.8438 60.5067 30.5988 60.2578C31.5533 60.2993 32.5078 60.3408 33.4622 60.3408C38.1516 60.3408 42.9239 59.76 47.4058 58.308C55.3321 55.7358 61.6814 49.7618 64.4618 41.9624C64.0468 43.4974 63.4658 45.0739 62.7603 46.5259ZM64.2958 39.5147C63.1753 43.9952 60.7269 48.1024 57.4485 51.3383C54.0871 54.6572 49.8127 56.773 45.2894 58.0176C40.6415 59.3036 35.7447 59.594 30.9308 59.4281C29.1464 59.3451 27.3619 59.2207 25.619 58.9303C24.789 58.6813 23.959 58.3909 23.1705 58.1005C18.7717 56.4826 14.5803 54.3668 10.8869 51.4627C7.65003 48.8906 4.95261 45.7376 3.12667 42.0454C2.54569 40.0955 2.2552 38.0627 2.2137 35.9884C2.0892 31.4249 3.29266 27.1518 5.16011 23.1277C6.23907 20.7629 7.40104 18.4812 9.01949 16.4484C10.6379 14.457 12.7129 12.9221 14.9123 11.5945C18.5642 9.35424 22.3821 7.73627 26.5734 6.86506C30.7233 5.99385 35.0392 5.91088 39.272 6.40872C40.3095 6.53317 41.347 6.69912 42.426 6.90655C43.3389 7.19695 44.2934 7.52884 45.1649 7.90222C51.0162 10.184 56.577 13.9177 60.3119 19.062C62.7188 22.4224 64.2543 26.5295 64.9183 30.6782C65.2087 33.5822 65.0013 36.6107 64.2958 39.5147ZM63.2998 19.6843C65.7897 24.0404 66.9102 29.1017 66.7027 34.08C66.6197 35.9469 66.3292 37.8138 65.8312 39.5977C65.9972 38.6435 66.1217 37.6478 66.1632 36.6522C66.2877 34.7438 66.1217 32.8354 65.8312 30.9686C65.6237 28.6453 65.0843 26.3221 64.2958 24.1648C62.8018 20.0992 60.2704 16.1995 57.075 13.171C57.1165 13.1295 57.1165 13.1295 57.158 13.088C57.407 12.8806 57.656 12.7146 57.905 12.5902C59.9799 14.6645 61.8059 17.1122 63.2998 19.6843Z" fill="#6CC470"/>
<path d="M27.6933 26.6539C27.6933 26.6124 27.6933 26.5295 27.6933 26.488C27.5273 25.7412 27.2783 25.036 26.9048 24.4137C26.1993 23.0031 25.0788 21.883 23.3774 21.6341C23.0039 21.5096 22.6304 21.5511 22.2569 21.6341C21.4684 21.8 20.846 22.2979 20.3895 22.9617C19.6425 23.7914 19.103 24.87 19.0615 25.6168C19.0615 25.8242 19.1445 25.9901 19.269 26.1146C19.2275 26.322 19.2275 26.5295 19.2275 26.6954C19.2275 27.1518 19.767 27.4836 20.182 27.2347C21.095 26.6539 21.3025 25.6997 21.8004 24.787C23.2114 21.966 25.9088 26.0316 26.6558 27.2762C26.9878 27.8985 28.0252 27.3177 27.6933 26.6539Z" fill="#6CC470"/>
<path d="M49.1067 26.0732C48.9822 25.9073 48.8992 25.7414 48.8162 25.5754C48.1937 24.4138 47.9032 23.1277 47.1148 22.0906C46.4093 21.1364 45.0813 20.5141 43.8779 20.3896C40.5165 20.0577 40.807 24.5797 41.4294 26.737C41.5954 27.2763 42.5499 27.3593 42.6329 26.737C42.6329 26.6126 42.6744 26.5296 42.6744 26.4051C42.7574 26.3222 42.7989 26.1562 42.7989 25.9903C42.7574 25.4924 42.7574 25.0361 42.7574 24.5383C42.8404 23.2937 43.7534 23.0033 44.8323 23.0033C46.1188 22.9618 47.0318 24.8287 47.6957 26.1147C47.8202 26.3222 47.9032 26.5296 48.0692 26.737C48.4842 27.3593 49.5217 26.7785 49.1067 26.0732Z" fill="#6CC470"/>
<path d="M46.9498 37.1085C46.5348 36.4033 45.9123 35.864 45.1654 35.4906C44.8749 35.3246 44.5014 35.4076 44.2939 35.698C44.1279 35.9884 44.2109 36.4033 44.5014 36.5692C44.6674 36.6522 44.8334 36.7352 44.9579 36.8596C43.2564 37.8968 41.472 38.685 39.646 39.1829C39.397 39.1414 39.1066 39.1829 38.9821 39.3488C35.8282 40.137 32.5498 40.1785 29.3129 39.6807C29.1054 39.4733 28.7319 39.3903 28.5244 39.5562C26.7814 39.2243 25.0385 38.7265 23.3785 38.1042L23.42 38.0627C23.918 37.4404 23.0466 36.5692 22.5486 37.1915C21.9261 37.8968 21.5526 38.7265 21.3866 39.6392C21.3451 39.9711 21.4696 40.303 21.8016 40.386C22.0921 40.4689 22.5071 40.303 22.5486 39.9711C22.5901 39.7222 22.6731 39.4318 22.7561 39.1829C22.7976 39.2243 22.8391 39.2243 22.8806 39.2243C24.582 39.8881 26.3665 40.386 28.1509 40.7593C27.6529 45.2813 29.1054 52.334 34.5002 52.4584C41.4305 52.5829 42.136 45.4888 40.3515 40.2615C42.2605 39.6807 44.0864 38.851 45.8293 37.7308C46.3688 38.3946 47.3648 37.7723 46.9498 37.1085ZM34.5832 51.2139C30.1013 51.2968 29.0639 44.6176 29.4374 40.9668C31.0143 41.2157 32.6328 41.2987 34.2097 41.2572C34.0437 41.3816 33.9192 41.6305 34.0022 41.8795C34.5832 44.0367 34.9982 46.2355 35.1642 48.4758C35.2472 49.264 36.4921 49.264 36.4091 48.4758C36.2016 46.1111 35.8282 43.8293 35.1642 41.5476C35.1227 41.3816 35.0397 41.2572 34.9152 41.2157C36.3676 41.1327 37.7786 40.9253 39.1896 40.5934C40.808 45.1154 40.642 51.1309 34.5832 51.2139Z" fill="#6CC470"/>
<path d="M50.1034 29.4335C49.564 29.475 48.983 29.5994 48.4435 29.7239C46.742 29.5994 45.1651 30.0143 43.5051 30.5536C42.9242 30.761 42.8827 31.5908 43.5051 31.7567C44.8746 32.1716 46.3271 32.296 47.738 32.0886C48.817 31.9227 50.3939 31.6737 51.0164 30.6366C51.4314 29.9728 50.6844 29.392 50.1034 29.4335Z" fill="#6CC470"/>
<path d="M23.3782 31.2175C22.1747 30.5952 20.8468 30.4293 19.6018 30.7611C18.6058 30.6367 17.5269 30.6367 16.9044 31.3419C16.6139 31.7153 16.6969 32.2546 17.1949 32.3791C19.1868 33.0014 21.2618 32.9599 23.2537 32.3376C23.7102 32.2132 23.8762 31.5079 23.3782 31.2175Z" fill="#6CC470"/>
</svg>
