<?xml version="1.0" encoding="UTF-8"?>
<svg xmlns="http://www.w3.org/2000/svg" xmlns:xlink="http://www.w3.org/1999/xlink" width="24pt" height="24pt" viewBox="0 0 24 24" version="1.1">
<g id="surface8578485">
<path style=" stroke:none;fill-rule:nonzero;fill:rgb(36.078432%,14.901961%,52.156866%);fill-opacity:1;" d="M 18 2.5 C 16.074219 2.5 14.5 4.074219 14.5 6 C 14.5 6.292969 14.597656 6.554688 14.667969 6.828125 L 8.671875 9.828125 C 8.03125 9.035156 7.089844 8.5 6 8.5 C 4.074219 8.5 2.5 10.074219 2.5 12 C 2.5 13.925781 4.074219 15.5 6 15.5 C 7.089844 15.5 8.03125 14.964844 8.671875 14.171875 L 14.667969 17.171875 C 14.597656 17.445312 14.5 17.707031 14.5 18 C 14.5 19.925781 16.074219 21.5 18 21.5 C 19.925781 21.5 21.5 19.925781 21.5 18 C 21.5 16.074219 19.925781 14.5 18 14.5 C 16.910156 14.5 15.96875 15.035156 15.328125 15.828125 L 9.332031 12.828125 C 9.402344 12.554688 9.5 12.292969 9.5 12 C 9.5 11.707031 9.402344 11.445312 9.332031 11.171875 L 15.328125 8.171875 C 15.96875 8.964844 16.910156 9.5 18 9.5 C 19.925781 9.5 21.5 7.925781 21.5 6 C 21.5 4.074219 19.925781 2.5 18 2.5 Z M 18 4 C 19.113281 4 20 4.886719 20 6 C 20 7.113281 19.113281 8 18 8 C 16.886719 8 16 7.113281 16 6 C 16 4.886719 16.886719 4 18 4 Z M 6 10 C 7.113281 10 8 10.886719 8 12 C 8 13.113281 7.113281 14 6 14 C 4.886719 14 4 13.113281 4 12 C 4 10.886719 4.886719 10 6 10 Z M 18 16 C 19.113281 16 20 16.886719 20 18 C 20 19.113281 19.113281 20 18 20 C 16.886719 20 16 19.113281 16 18 C 16 16.886719 16.886719 16 18 16 Z M 18 16 "/>
</g>
</svg>
