<svg width="103" height="75" viewBox="0 0 103 75" fill="none" xmlns="http://www.w3.org/2000/svg">
<g clip-path="url(#clip0)">
<path d="M32.2014 73.8264C31.8915 74.2975 31.3459 74.5083 30.9057 74.5083C29.7588 74.5083 29.0459 73.6652 29.0459 72.574C29.0459 71.4829 29.7588 70.6398 30.9057 70.6398C31.3459 70.6398 31.8109 70.8258 32.0837 71.2349L32.4184 70.9559C32.0341 70.4662 31.5009 70.2678 30.9057 70.2678C29.5666 70.2678 28.6367 71.2349 28.6367 72.574C28.6367 73.9132 29.5666 74.8803 30.9057 74.8803C31.5505 74.8803 32.1209 74.6509 32.5362 74.0805L32.2014 73.8264V73.8264ZM36.3509 74.7687H36.7787L37.2746 73.6032H39.5995L40.0769 74.7687H40.5356L38.6881 70.3794H38.2666L36.3509 74.7687V74.7687ZM39.4507 73.2312H37.4358L38.4588 70.8258L39.4507 73.2312ZM44.8029 74.7687H45.212V72.6856H46.1606C46.8487 72.6856 47.4811 72.3323 47.4811 71.5387C47.4811 70.6212 46.6875 70.3794 46.0676 70.3794H44.8029V74.7687ZM45.212 70.7514H46.1172C46.5883 70.7514 47.0719 70.9745 47.0719 71.5387C47.0719 72.1153 46.6069 72.3137 46.142 72.3137H45.212V70.7514ZM51.9964 74.7687H52.4055V70.3794H51.9964V74.7687ZM58.2165 74.7687H58.6257V70.7514H60.126V70.3794H56.7162V70.7514H58.2165V74.7687V74.7687ZM63.4447 74.7687H63.8725L64.3684 73.6032H66.6933L67.1707 74.7687H67.6294L65.7819 70.3794H65.3604L63.4447 74.7687ZM66.5445 73.2312H64.5296L65.5526 70.8258L66.5445 73.2312ZM71.8967 74.7687H74.3517V74.3967H72.3058V70.3794H71.8967V74.7687Z" fill="#5D1399"/>
<path d="M0.608605 62.377H2.0638V56.7746C2.0638 53.6945 3.7857 52.1908 5.9442 52.1908C7.5207 52.1908 8.2725 53.5732 8.2725 55.6347V62.377H9.7277V56.0713C9.7277 54.4706 10.431 52.1908 13.1231 52.1908C15.4271 52.1908 15.9364 53.9613 15.9364 55.7802V62.377H17.3916V55.7075C17.3916 53.2579 16.6155 50.8812 13.1231 50.8812C11.5709 50.8812 10.0187 51.633 9.3154 53.3065C8.7818 51.6088 7.4237 50.8812 5.9442 50.8812C4.1253 50.8812 2.69441 51.8998 2.11231 53.1367H2.0395C1.991 52.9184 1.9668 51.9968 1.9425 51.1722H0.487404C0.487404 51.7543 0.608605 53.5005 0.608605 54.3251V62.377V62.377ZM28.9475 54.9314C28.9475 52.0938 27.2013 50.8812 24.485 50.8812C23.0298 50.8812 21.2836 51.439 20.2165 52.4576L21.0653 53.452C22.0597 52.6031 23.1753 52.1908 24.485 52.1908C26.2797 52.1908 27.6378 52.9669 27.6378 54.9071V55.5862H25.9401C23.7331 55.5862 19.7314 55.9258 19.7314 59.3454C19.7314 61.7222 21.7687 62.668 23.6846 62.668C25.5763 62.668 26.789 61.989 27.6136 60.558H27.6621C27.6621 61.1886 27.7106 61.8192 27.8076 62.377H29.1658C28.996 61.0916 28.9475 59.8547 28.9475 57.672V54.9314V54.9314ZM27.6378 56.7504V57.5022C27.6378 59.3697 26.8375 61.3584 23.7331 61.3584C22.5205 61.3584 21.1866 60.6551 21.1866 59.2726C21.1866 57.3567 23.6119 56.7504 26.0371 56.7504H27.6378V56.7504ZM32.0392 62.377H33.4943V51.1722H32.0392V62.377ZM31.6754 46.7339C31.6754 47.3403 32.1604 47.8253 32.7667 47.8253C33.3731 47.8253 33.8581 47.3403 33.8581 46.7339C33.8581 46.1276 33.3731 45.6426 32.7667 45.6426C32.1604 45.6426 31.6754 46.1276 31.6754 46.7339ZM36.586 62.377H38.0412V56.7746C38.0412 53.6945 39.7631 52.1908 41.9216 52.1908C44.2257 52.1908 44.735 53.9613 44.735 55.7802V62.377H46.1901V55.7075C46.1901 53.2579 45.414 50.8812 41.9216 50.8812C40.1027 50.8812 38.6718 51.8998 38.0897 53.1367H38.0169C37.9684 52.9184 37.9442 51.9968 37.9199 51.1722H36.4648C36.4648 51.7543 36.586 53.5005 36.586 54.3251V62.377V62.377ZM47.7782 60.3883C48.6513 61.9404 50.3732 62.668 52.2892 62.668C54.4234 62.668 56.3394 61.5039 56.3394 59.1999C56.3394 54.6646 49.6941 57.0171 49.6941 53.9855C49.6941 52.8214 51.0281 52.1908 52.0709 52.1908C53.3806 52.1908 54.1567 52.7486 54.7145 53.7673L56.0241 52.9912C55.2965 51.5603 53.8899 50.8812 52.0709 50.8812C50.2277 50.8812 48.239 51.924 48.239 54.1068C48.239 58.3753 54.8842 56.2168 54.8842 59.2969C54.8842 60.5823 53.5746 61.3584 52.3135 61.3584C51.0038 61.3584 49.6699 60.7036 49.0636 59.5152L47.7782 60.3883V60.3883ZM63.8209 51.1722H60.6195V47.9466H59.1643V51.1722H56.739V52.4819H59.1643V59.782C59.1643 61.3826 59.9647 62.668 62.0504 62.668C62.6082 62.668 63.4086 62.474 63.9421 62.28L63.8209 60.9703C63.3115 61.1886 62.7295 61.3584 62.1717 61.3584C61.2016 61.3584 60.6195 60.7763 60.6195 59.782V52.4819H63.8209V51.1722V51.1722ZM65.3846 62.377H66.8398V56.2653C66.8398 54.0825 67.9797 52.3363 70.502 52.3363C70.6475 52.3363 70.8415 52.3606 71.0598 52.4334L71.2295 51.0024C70.9385 50.9297 70.6717 50.8812 70.3807 50.8812C68.7073 50.8812 67.5431 51.827 66.8155 53.1367C66.767 52.9184 66.7428 51.9968 66.7185 51.1722H65.2634C65.2634 51.7543 65.3846 53.5005 65.3846 54.3251V62.377V62.377ZM80.8209 59.3697C80.0934 60.5823 78.5412 61.3584 77.0618 61.3584C73.6664 61.3584 72.8175 58.351 72.8175 57.1384H82.2276V56.1198C82.2276 53.5247 80.4086 50.8812 76.9647 50.8812C73.6906 50.8812 71.3624 53.4035 71.3624 56.7504C71.3624 60.2185 73.6179 62.668 77.0375 62.668C79.0262 62.668 80.7482 61.9647 81.8881 60.267L80.8209 59.3697V59.3697ZM72.8175 55.8287C72.8175 55.2467 73.7149 52.1908 76.892 52.1908C79.0505 52.1908 80.7724 53.84 80.7724 55.8287H72.8175ZM93.2742 59.3697C92.5467 60.5823 90.9945 61.3584 89.5151 61.3584C86.1197 61.3584 85.2708 58.351 85.2708 57.1384H94.6809V56.1198C94.6809 53.5247 92.8619 50.8812 89.418 50.8812C86.1439 50.8812 83.8157 53.4035 83.8157 56.7504C83.8157 60.2185 86.0712 62.668 89.4908 62.668C91.4795 62.668 93.2015 61.9647 94.3414 60.267L93.2742 59.3697V59.3697ZM85.2708 55.8287C85.2708 55.2467 86.1682 52.1908 89.3453 52.1908C91.5038 52.1908 93.2257 53.84 93.2257 55.8287H85.2708ZM102.381 51.1722H99.1793V47.9466H97.7241V51.1722H95.2988V52.4819H97.7241V59.782C97.7241 61.3826 98.5245 62.668 100.61 62.668C101.168 62.668 101.968 62.474 102.502 62.28L102.381 60.9703C101.871 61.1886 101.289 61.3584 100.732 61.3584C99.7614 61.3584 99.1793 60.7763 99.1793 59.782V52.4819H102.381V51.1722V51.1722Z" fill="#5D1399"/>
<path fill-rule="evenodd" clip-rule="evenodd" d="M50.8067 37.4781C50.2518 37.0398 50.1318 36.9511 49.5615 36.5159C49.4565 36.4334 49.3447 36.351 49.2364 36.2684C46.3898 34.1194 43.5892 31.9581 40.4639 29.564C47.6694 22.0029 57.1888 15.0937 66.5918 10.5564C66.5955 10.5566 66.5993 10.554 66.603 10.5488C69.6589 13.0224 72.7791 15.4763 75.842 17.9409C64.6205 22.3735 57.6425 27.6901 50.8067 37.4781Z" fill="#ED3237"/>
<path fill-rule="evenodd" clip-rule="evenodd" d="M52.2846 -0.737701C55.678 1.9431 59.0624 4.7183 62.4995 7.3513C55.2939 14.9123 43.7618 22.8644 35.9693 26.132C35.9655 26.1319 35.9618 26.1345 35.9581 26.1396C32.9836 23.8646 29.5828 21.164 26.4333 18.816C37.5525 14.2471 45.3466 8.8118 52.2846 -0.737701V-0.737701Z" fill="#5D1399"/>
</g>
<defs>
<clipPath id="clip0">
<rect width="297" height="210" fill="white" transform="translate(-97 -68)"/>
</clipPath>
</defs>
</svg>
