<svg width="70" height="67" viewBox="0 0 70 67" fill="none" xmlns="http://www.w3.org/2000/svg">
<path d="M68.7788 27.7861C67.711 24.2847 65.917 21.0396 63.6533 18.1787C61.8594 15.9157 59.9373 13.8661 57.6736 12.1581C60.1509 10.7064 63.0553 10.2367 65.9598 10.8345C66.7713 11.0053 67.113 9.76697 66.3015 9.59618C62.8418 8.87029 59.4248 9.51078 56.5631 11.3896C56.4349 11.3042 56.2641 11.1761 56.136 11.0907C56.8194 9.68158 57.5882 8.35791 58.656 7.16232C60.4072 5.15546 62.9699 4.42956 65.4899 3.87447C66.3015 3.70368 65.9598 2.4654 65.1482 2.6362C62.5428 3.19129 60.1936 4.00257 58.1861 5.79594C56.7766 7.03422 55.837 8.69949 55.0254 10.4075C54.94 10.3648 54.8546 10.3221 54.7692 10.2367C55.5807 8.3579 55.8797 6.30833 55.6234 4.21606C55.4526 2.84968 54.641 -0.907852 52.5481 0.20233C51.822 0.586624 52.4627 1.69681 53.1888 1.31251C54.0003 0.885521 54.4275 6.30834 54.4275 6.73533C54.3848 7.76012 54.0858 8.7422 53.6586 9.68158C53.1461 9.42539 52.5908 9.21188 52.0783 8.95569C52.2064 5.62514 51.0105 2.2519 47.38 1.31251C46.5684 1.09902 46.2267 2.3373 47.0383 2.55079C49.9 3.27668 50.8824 5.83865 50.8396 8.4433C44.561 6.09484 37.5562 5.71054 30.9785 6.64993C28.971 6.73533 26.9635 7.03422 24.9988 7.41851C22.4788 7.8882 20.0015 8.5287 17.6523 9.59618C15.3458 10.621 13.3811 12.2435 11.5444 13.9515C9.79325 15.6168 8.12747 17.3675 6.63254 19.2889C3.85625 22.9184 1.89149 27.1029 1.03725 31.5863C0.695553 33.337 0.567417 35.1304 0.652841 36.9237C0.43928 39.5284 0.567417 42.1758 1.03725 44.7377C1.80607 48.8795 3.59998 52.7652 6.29085 55.9676C9.23799 59.469 13.2529 61.9455 17.4814 63.5681C23.333 65.8312 29.868 66.3863 36.2321 65.8739C36.4884 65.9166 36.7446 65.9166 37.0009 65.9593C41.8701 66.429 46.8247 65.9593 51.3949 64.1659C55.5807 62.5006 59.3394 59.7679 62.2865 56.3519C63.7387 54.6439 64.9347 52.8079 65.8743 50.801C66.3015 50.0751 66.7286 49.3492 67.113 48.6233C70.3164 42.2184 70.8289 34.6607 68.7788 27.7861ZM54.342 11.048C54.4275 11.0907 54.5129 11.1334 54.641 11.2188C54.4702 11.5604 54.342 11.9019 54.1712 12.2435C54.0431 12.1581 53.9149 12.0727 53.7868 12.03C54.0003 11.6884 54.1712 11.3468 54.342 11.048ZM51.9502 9.85238C52.3773 10.0232 52.8044 10.2367 53.2315 10.4502C53.0607 10.7918 52.8471 11.0907 52.6336 11.3896C52.3346 11.2615 52.0783 11.0907 51.7793 10.9626C51.8647 10.621 51.9074 10.2367 51.9502 9.85238ZM50.7115 9.33998C50.6688 9.72427 50.6261 10.0659 50.5834 10.4502C48.5332 9.63888 46.3976 8.99839 44.2193 8.5714C43.8348 8.4433 43.4504 8.31521 43.066 8.22981C41.2721 7.71742 39.4782 7.33311 37.6416 7.03422C42.1264 7.03422 46.5684 7.7601 50.7115 9.33998ZM14.1499 12.7559C16.2855 11.048 18.7628 9.89507 21.411 9.12648H21.4537C20.3859 9.55348 19.3608 10.0232 18.3357 10.5356C16.3282 11.5604 14.4916 12.8413 12.655 14.1223C12.4841 14.2504 12.2706 14.3785 12.0997 14.5493C12.7831 13.9088 13.4665 13.311 14.1499 12.7559ZM5.73559 23.0038C8.12747 18.3495 12.3987 15.1898 16.7126 12.4997C20.3004 10.2367 24.4008 8.82759 28.5439 7.97361C29.27 7.84551 29.9961 7.67472 30.7222 7.58932C32.0463 7.54662 33.3704 7.54661 34.6944 7.63201C35.2497 7.67471 35.805 7.71742 36.4029 7.80281C35.0361 7.80281 33.6693 7.84551 32.3453 7.93091C28.2876 8.2725 24.2727 9.21188 20.5567 10.8345C16.2428 12.7132 11.758 15.4033 8.81087 19.1608C7.27323 21.1677 6.12 23.4308 5.0522 25.7365C4.11253 27.7434 3.301 29.7929 2.78845 31.9706C2.10505 34.7461 1.80607 37.6069 1.97692 40.4678C1.76336 39.3576 1.59251 38.2047 1.5498 37.0518C1.93421 32.1414 3.47184 27.2737 5.73559 23.0038ZM25.4259 64.721C16.0292 63.3973 6.97424 58.4869 3.21557 49.3919C2.2759 47.1716 1.72065 44.8231 1.50708 42.4746C1.72065 43.2432 2.01963 44.0118 2.31862 44.7377C2.48946 45.0793 2.6176 45.4636 2.78845 45.8052C5.22304 54.3024 12.5695 59.9814 20.8557 62.586C22.735 63.1838 24.6998 63.6108 26.6646 63.867C28.2449 64.3794 29.9107 64.8064 31.5337 65.148C29.4836 65.148 27.4334 64.9772 25.4259 64.721ZM6.03457 50.8864C7.31594 52.509 8.81087 54.0035 10.3912 55.3698C13.3811 57.8891 16.7126 59.8533 20.2577 61.4331C19.5316 61.1769 18.8055 60.9207 18.1221 60.6646C13.6373 58.8285 9.49426 55.8822 6.67526 51.9112C6.4617 51.5696 6.24814 51.228 6.03457 50.8864ZM53.9576 61.9882C50.0708 64.1659 45.7569 65.148 41.3575 65.2761C42.767 65.0626 44.1338 64.7637 45.4579 64.4648C50.0281 63.3973 54.5129 61.6039 58.357 58.8285C58.6987 58.5723 59.0404 58.3161 59.3394 58.0599C57.7163 59.5544 55.9224 60.8781 53.9576 61.9882ZM65.0628 50.2459C62.4146 54.5159 58.5705 58.0599 54.0431 60.4084C49.6864 62.6714 44.8599 63.867 40.0762 64.5502C38.6667 64.7637 37.2572 64.8918 35.8477 65.0199C34.5663 64.8491 33.2422 64.6356 31.9609 64.3794C32.9432 64.4221 33.9256 64.4648 34.908 64.4648C39.7345 64.4648 44.6464 63.867 49.2593 62.3725C57.4173 59.7252 63.9523 53.5765 66.814 45.549C66.3869 47.1289 65.7889 48.7087 65.0628 50.2459ZM66.6432 43.0297C65.4899 47.6413 62.9699 51.8685 59.5956 55.199C56.136 58.615 51.7366 60.7926 47.081 62.0736C42.2972 63.3973 37.2572 63.6962 32.3026 63.5254C30.4659 63.44 28.6293 63.3119 26.8354 63.013C25.9812 62.7568 25.1269 62.4579 24.3154 62.159C19.7879 60.4938 15.474 58.3161 11.6726 55.3271C8.34103 52.6798 5.56474 49.4346 3.68541 45.6344C3.08743 43.6275 2.78845 41.5353 2.74574 39.4003C2.6176 34.7888 3.85625 30.3907 5.7783 26.2062C6.88882 23.7723 8.08476 21.4239 9.75053 19.3316C11.4163 17.2821 13.5519 15.7022 15.8157 14.3358C19.5743 12.03 23.5039 10.3648 27.8178 9.46809C32.089 8.5714 36.5311 8.486 40.8877 8.99839C41.9555 9.12649 43.0233 9.29729 44.1338 9.51079C45.0735 9.80968 46.0559 10.1513 46.9528 10.5356C52.9753 12.884 58.6987 16.727 62.5428 22.0217C65.0201 25.4803 66.6004 29.7076 67.2838 33.9775C67.5828 36.9237 67.3693 40.0408 66.6432 43.0297ZM68.2235 43.0724C68.3944 42.0903 68.5225 41.0656 68.5652 40.0408C68.6933 38.0766 68.5225 36.1124 68.2235 34.191C68.0099 31.7998 67.4547 29.4087 66.6432 27.1883C64.6784 21.9363 61.0906 16.9405 56.5631 13.6953C56.3922 13.5672 56.2214 13.4391 56.0505 13.3537C56.3495 13.0975 56.6485 12.884 56.9475 12.6705C60.5353 15.2752 63.4397 18.8192 65.6608 22.6195C68.2235 27.1029 69.3767 32.3122 69.1632 37.4361C69.035 39.3576 68.7361 41.2364 68.2235 43.0724Z" fill="#FFD600"/>
<path d="M27.6892 21.424C25.1692 24.541 21.7095 26.5479 17.6946 27.103C16.8831 27.231 16.8831 28.512 17.6946 28.3839C19.2749 28.1704 20.7699 27.7434 22.1794 27.1457C22.2221 28.939 22.6919 31.1594 24.8702 31.3729C27.2194 31.5864 27.7319 28.8536 27.3475 27.0602C27.1767 26.249 26.6214 25.3523 25.9807 24.8826C26.9204 24.114 27.8174 23.26 28.5862 22.3206C29.0987 21.6802 28.2018 20.7835 27.6892 21.424ZM24.9984 26.0355C25.1692 25.7793 25.4255 25.9928 25.6391 26.3344C25.5109 26.1636 25.2546 26.0355 24.9984 26.0355Z" fill="#FFD600"/>
<path d="M50.9252 24.1139C47.6364 23.5588 44.5611 22.4486 41.5285 21.2103C41.4858 20.9114 41.3149 20.6552 40.9305 20.6125C40.8451 20.6125 40.7597 20.6125 40.6743 20.6125C40.4607 20.6125 40.2471 20.7406 40.119 20.9114C40.0763 20.9968 40.0336 21.0822 39.9909 21.1676C39.7773 21.5519 39.9909 21.9362 40.3753 22.107C41.4004 22.534 42.4255 22.961 43.4933 23.3453C43.4506 23.388 43.4506 23.388 43.4078 23.4307C41.6139 26.0781 43.9631 30.8177 47.4228 29.3232C48.7896 28.7254 49.3876 26.6759 48.7042 25.3949C48.6187 25.1814 48.4906 25.0106 48.3197 24.8398C49.0886 25.0106 49.8574 25.1814 50.6262 25.3095C51.395 25.4803 51.7367 24.242 50.9252 24.1139ZM47.5936 27.0601C47.5509 26.6331 47.3801 26.2489 47.0811 25.8646C46.953 25.6084 46.8248 25.3949 46.654 25.1814C46.8248 25.2668 46.9957 25.3949 47.1665 25.5657C47.6364 25.95 47.7218 26.5051 47.5936 27.0601Z" fill="#FFD600"/>
<path d="M47.5077 40.9374C46.6108 39.4002 45.3721 38.1619 43.8345 37.2652C43.1084 36.8382 42.4677 37.9484 43.1938 38.3754C43.6209 38.6316 44.0053 38.8878 44.347 39.1867C41.229 44.2679 35.5483 47.2142 29.5686 46.7872C28.7571 46.7445 28.7571 48.0254 29.5686 48.0681C35.8473 48.5378 41.9124 45.4208 45.2867 40.1261C45.7138 40.5958 46.0555 41.0655 46.3545 41.6205C46.8243 42.3037 47.9348 41.6632 47.5077 40.9374Z" fill="#FFD600"/>
<path d="M24.8698 36.0269C24.3999 35.5145 23.8874 35.2583 23.3321 35.1302C23.2467 34.8313 22.9477 34.5751 22.5633 34.7032C21.1538 35.1729 19.7443 35.6426 18.3348 36.1123C17.7795 36.2831 17.6941 37.1798 18.3348 37.3506C20.4277 37.8203 22.5206 37.7776 24.5708 37.0944C25.0406 36.9663 25.2114 36.4112 24.8698 36.0269Z" fill="#FFD600"/>
<path d="M52.6759 32.7392C51.9498 32.6111 51.2237 32.5684 50.4975 32.6538C50.4121 32.4403 50.2413 32.2268 49.8996 32.2268C48.7891 32.2268 47.8067 32.6111 46.9951 33.3797C46.6535 33.7213 46.8243 34.3618 47.2941 34.4472C49.2162 34.8742 51.0528 34.6607 52.8467 33.8921C53.3165 33.6786 53.1884 32.8246 52.6759 32.7392Z" fill="#FFD600"/>
</svg>
